# xmcd CD database file
#
# Track frame offsets:
#	150
#	11297
#	25354
#	39090
#	53679
#	66842
#	80967
#	95657
#	110350
#	124957
#	139316
#	151911
#	166491
#	181875
#	192380
#	211295
#	226694
#	241049
#	257658
#	272271
#	286663
#	302631
#
# Disc length: 4434 seconds
#
# Revision: 0
# Processed by: cddbd v1.5.2PL0 Copyright (c) Steve Scherf et al.
# Submitted via: Kat CD Ripper 
#
DISCID=21115016
DTITLE=Ella fitzgerald - A Proper Introduction to Ella Fitzgerald: Smooth Sailing
DYEAR=2004
DGENRE=Jazz
TTITLE0=Flying Home 
TTITLE1=Smooth Sailing 
TTITLE2=Air Mail Special
TTITLE3=Rough Ridin' 
TTITLE4=Angel Eyes 
TTITLE5=Looking for a Boy 
TTITLE6=My One and Only 
TTITLE7=How Long Has This Been GoingOn?
TTITLE8=I've Got a Crush on You
TTITLE9=But Not for Me 
TTITLE10=Soon 
TTITLE11=Some One to Watch Over Me
TTITLE12=Maybe
TTITLE13=On the Sunny Side of the Street 
TTITLE14=Body and Soul 
TTITLE15=Why Don't You Do Right?
TTITLE16=Oh, Lady Be Good
TTITLE17=I Got It Bad (And That Ain'tGood)
TTITLE18=How High the Moon
TTITLE19=My Funny Valentine
TTITLE20=The Frim Fram Sauce
TTITLE21=Perdido
EXTD=YEAR: 2004
EXTT0=
EXTT1=
EXTT2=
EXTT3=
EXTT4=
EXTT5=
EXTT6=
EXTT7=
EXTT8=
EXTT9=
EXTT10=
EXTT11=
EXTT12=
EXTT13=
EXTT14=
EXTT15=
EXTT16=
EXTT17=
EXTT18=
EXTT19=
EXTT20=
EXTT21=
PLAYORDER=
